<svg width="512" height="512" viewBox="0 0 512 512" xmlns="http://www.w3.org/2000/svg">
  <defs>
    <linearGradient id="bg-gradient" x1="0%" y1="0%" x2="100%" y2="100%">
      <stop offset="0%" style="stop-color:#667eea;stop-opacity:1" />
      <stop offset="100%" style="stop-color:#764ba2;stop-opacity:1" />
    </linearGradient>
  </defs>
  
  <!-- Background -->
  <rect width="512" height="512" rx="75" fill="url(#bg-gradient)"/>
  
  <!-- Card symbols -->
  <g transform="translate(256,150)">
    <!-- Heart -->
    <path d="M-40,-20 C-60,-40 -80,-20 -80,0 C-80,20 -40,40 -40,40 C-40,40 0,20 0,0 C0,-20 -20,-40 -40,-20 Z" fill="#ff4757"/>
    
    <!-- Spade -->  
    <path d="M40,-40 C20,-60 0,-40 0,-20 C0,0 20,20 40,20 C60,20 80,0 80,-20 C80,-40 60,-60 40,-40 Z" fill="#2c2c54"/>
    
    <!-- Club -->
    <circle cx="-30" cy="20" r="15" fill="#2c2c54"/>
    <circle cx="-10" cy="35" r="15" fill="#2c2c54"/>  
    <circle cx="-10" cy="5" r="15" fill="#2c2c54"/>
    <rect x="-15" y="40" width="10" height="20" fill="#2c2c54"/>
  </g>
  
  <!-- Dollar sign -->
  <g transform="translate(256,320)">
    <rect x="-2" y="-40" width="4" height="80" fill="white"/>
    <path d="M-30,-20 Q-30,-35 -15,-35 L15,-35 Q30,-35 30,-20 Q30,-5 15,-5 L-15,-5 Q-30,-5 -30,10 Q-30,25 -15,25 L15,25 Q30,25 30,10" stroke="white" stroke-width="6" fill="none"/>
  </g>
  
  <!-- App title -->
  <text x="256" y="450" font-family="Arial, sans-serif" font-size="36" font-weight="bold" fill="white" text-anchor="middle">SHEEPSHEAD</text>
</svg>